<?xml version="1.0" encoding="utf-8"?>
<!-- Generator: Adobe Illustrator 16.0.0, SVG Export Plug-In . SVG Version: 6.00 Build 0)  -->
<!DOCTYPE svg PUBLIC "-//W3C//DTD SVG 1.1//EN" "http://www.w3.org/Graphics/SVG/1.1/DTD/svg11.dtd">
<svg version="1.1" xmlns="http://www.w3.org/2000/svg" xmlns:xlink="http://www.w3.org/1999/xlink" x="0px" y="0px" width="960px"
	 height="560px" viewBox="0 0 960 560" enable-background="new 0 0 960 560" xml:space="preserve">
<g id="Слой_1">
</g>
<g id="Слой_2">
	<rect x="321" y="82" fill="#136262" width="257" height="348"/>
	<rect x="341.5" y="100.5" fill="#FFFFFF" stroke="#000000" stroke-miterlimit="10" width="257" height="348"/>
	<circle fill="#136262" cx="469.834" cy="163.389" r="29.167"/>
	<circle fill="#136262" stroke="#FFFFFF" stroke-width="3" stroke-miterlimit="10" cx="469.782" cy="163.115" r="21.781"/>
	<rect x="376" y="230" fill="#B4DDC0" width="186" height="16"/>
	<rect x="377" y="253" fill="#B4DDC0" width="186" height="16"/>
	<rect x="377" y="277" fill="#B4DDC0" width="186" height="16"/>
	<rect x="377" y="302" fill="#B4DDC0" width="186" height="16"/>
	<rect x="356" y="118" fill="none" stroke="#136262" stroke-width="2" stroke-miterlimit="10" width="228" height="313"/>
	<path fill="none" stroke="#136262" stroke-width="2" stroke-miterlimit="10" d="M486.778,398.111
		c-0.699-6.232,3.537-14.098,5.418-19.877c2.201-6.759,5.398-13.253,7.4-20.017c-1.482,11.926-2.374,23.975-3.901,35.88
		c-0.731,5.707-1.801,14.728-6.039,18.979c0.946-11.707,8.305-24.447,12.567-35.322c2.174-5.548,4.755-16.066,10.58-19.054
		c0.488,15.577-5.813,33.763-9.956,48.899c-0.333-6.619,3.242-15.133,5.6-22.239c2.918-8.794,6.248-18.847,13.812-24.791
		c0.261,13.542-7.185,26.896-8.701,40.3c-1.296,11.467,6.475,5.456,12.266,1.142c7.211-5.371,16.36-12.674,8.16-21.534
		c-9.609-10.383-49.664-10.255-58.869,1.41c-3.988,5.054-3.543,14.935,1.455,19.097c8.473,7.058,27.896,4.371,37.534,2.132
		c5.726-1.33,45.637-14.332,26.603-22.112c-11.394-4.656-24.353-3.519-35.486,0.976c-2.022,0.816-13.185,4.569-12.512,8.463
		c1.396,8.067,35.444,5.332,42.802,4.779c-1.167-0.249-2.413-1.291-3.642-1.648c-0.306-3.236,6.338-5.103,8.799-6.572"/>
	<g id="Слой_3">
	</g>
	<circle fill="#7B0063" stroke="#AF0D8F" stroke-miterlimit="10" cx="167.85" cy="445.15" r="89.849"/>
	<circle opacity="0.6" fill="#AF0D8F" cx="175.501" cy="438.473" r="87.527"/>
	<g>
		<path fill="none" stroke="#FFFFFF" stroke-width="7" stroke-miterlimit="10" d="M186.138,431.722c0,0-2.621-5.953-8.936-6.477
			c-6.628-0.549-11.725,2.552-12.746,4.471c-3.225,7.427,8.886,11.069,8.886,11.069s13.191,1.701,12.904,9.758
			c-0.199,5.582-5.191,8.488-10.843,8.175c-6.842-0.382-12.909-5.422-11.628-9.161"/>
		<line fill="none" stroke="#FFFFFF" stroke-width="7" stroke-miterlimit="10" x1="175.5" y1="427" x2="175.5" y2="417"/>
		<line fill="none" stroke="#FFFFFF" stroke-width="7" stroke-miterlimit="10" x1="175.5" y1="462" x2="175.5" y2="469"/>
	</g>
	<rect x="138.5" y="388.5" fill="none" stroke="#FFFFFF" stroke-width="7" stroke-miterlimit="10" width="71" height="96"/>
	<circle fill="#AF0D8F" stroke="#AF0D8F" stroke-miterlimit="10" cx="760.637" cy="133.559" r="112.636"/>
	<circle opacity="0.6" fill="#7B0063" cx="772.09" cy="119.885" r="108.939"/>
	<g>
		<polygon fill="none" stroke="#FFFFFF" stroke-width="3" stroke-miterlimit="10" points="711.607,79.397 764.965,103.799 
			763.251,189.217 710.457,160.199 		"/>
		<polyline fill="none" stroke="#FFFFFF" stroke-width="3" stroke-miterlimit="10" points="763.251,189.217 828.103,172.292 
			829.226,93.453 764.965,103.799 763.804,185.355 		"/>
		<polygon fill="none" stroke="#FFFFFF" stroke-width="3" stroke-miterlimit="10" points="711.607,79.397 781.731,73.391 
			829.226,93.453 764.965,103.799 		"/>
		<line fill="none" stroke="#FFFFFF" stroke-width="3" stroke-miterlimit="10" x1="747.903" y1="75.576" x2="796.02" y2="102.609"/>
		
			<line fill="none" stroke="#FFFFFF" stroke-width="3" stroke-miterlimit="10" x1="793.964" y1="100.853" x2="793.696" y2="119.743"/>
	</g>
	<path fill="#7B0063" d="M771.777,126.72"/>
	<path fill="#7B0063" d="M755.49,262.336"/>
	<path fill="none" stroke="#AF0D8F" stroke-miterlimit="10" d="M598,302.5"/>
	<path fill="none" d="M767.25,246"/>
	<path fill="none" d="M598.5,289.99"/>
	<g>
		<g>
			<g>
				<g>
					
						<ellipse transform="matrix(-0.006 1 -1 -0.006 909.6886 -298.4985)" fill="#231F20" cx="603.194" cy="302.853" rx="1.696" ry="1.622"/>
					<path fill="#457BBA" d="M626.265,309.526c-0.896-0.006-1.616-0.77-1.61-1.707c0.005-0.937,0.734-1.691,1.631-1.686
						L626.265,309.526z"/>
					<path fill="#457BBA" d="M626.208,319.201c-0.896-0.005-1.613-0.769-1.607-1.705c0.006-0.938,0.732-1.692,1.628-1.687
						L626.208,319.201z"/>
					
						<ellipse transform="matrix(-0.006 1 -1 -0.006 909.6886 -298.4985)" fill="#457BBA" cx="603.194" cy="302.853" rx="1.696" ry="1.622"/>
					
						<ellipse transform="matrix(-0.006 1 -1 -0.006 919.0433 -307.6855)" fill="#8C9B56" cx="612.437" cy="302.909" rx="1.696" ry="1.621"/>
					
						<ellipse transform="matrix(-0.006 1 -1 -0.006 928.4053 -316.8824)" fill="#457BBA" cx="621.689" cy="302.964" rx="1.696" ry="1.622"/>
					
						<ellipse transform="matrix(-0.006 1 -1 -0.006 928.7939 -288.4067)" fill="#8C9B56" cx="607.731" cy="317.394" rx="1.696" ry="1.622"/>
					
						<ellipse transform="matrix(-0.006 1 -1 -0.006 938.1476 -297.5927)" fill="#8C9B56" cx="616.973" cy="317.45" rx="1.696" ry="1.621"/>
					
						<ellipse transform="matrix(-0.006 1 -1 -0.006 919.1766 -298.1996)" fill="#8C9B56" cx="607.79" cy="307.719" rx="1.696" ry="1.621"/>
					
						<ellipse transform="matrix(-0.0058 1 -1 -0.0058 928.3528 -307.4747)" fill="#8C9B56" cx="617.031" cy="307.774" rx="1.696" ry="1.621"/>
					
						<ellipse transform="matrix(-0.006 1 -1 -0.006 919.3047 -288.7077)" fill="#8C9B56" cx="603.136" cy="312.528" rx="1.696" ry="1.622"/>
					
						<ellipse transform="matrix(-0.006 1 -1 -0.006 928.6594 -297.8947)" fill="#457BBA" cx="612.379" cy="312.584" rx="1.696" ry="1.62"/>
					
						<ellipse transform="matrix(-0.0058 1 -1 -0.0058 937.8441 -307.181)" fill="#8C9B56" cx="621.631" cy="312.64" rx="1.696" ry="1.621"/>
					
						<ellipse transform="matrix(-0.006 1 -1 -0.006 928.9326 -278.9039)" fill="#457BBA" cx="603.078" cy="322.214" rx="1.696" ry="1.622"/>
					
						<ellipse transform="matrix(-0.006 1 -1 -0.006 938.2874 -288.0909)" fill="#8C9B56" cx="612.321" cy="322.27" rx="1.696" ry="1.621"/>
					
						<ellipse transform="matrix(-0.006 1 -1 -0.006 947.6509 -297.2867)" fill="#457BBA" cx="621.573" cy="322.326" rx="1.696" ry="1.621"/>
					<path fill="#457BBA" d="M598.52,309.359c0.896,0.006,1.627-0.75,1.633-1.687s-0.716-1.7-1.612-1.706L598.52,309.359z"/>
					<path fill="#457BBA" d="M598.461,319.034c0.895,0.006,1.622-0.749,1.628-1.686c0.006-0.938-0.713-1.701-1.607-1.706
						L598.461,319.034z"/>
				</g>
				<g>
					
						<ellipse transform="matrix(-0.006 1 -1 -0.006 937.7659 -326.0753)" fill="#231F20" cx="630.938" cy="303.02" rx="1.696" ry="1.622"/>
					<path fill="#457BBA" d="M654.009,309.692c-0.896-0.005-1.616-0.77-1.61-1.706c0.005-0.937,0.734-1.691,1.631-1.687
						L654.009,309.692z"/>
					<path fill="#457BBA" d="M653.952,319.368c-0.896-0.006-1.613-0.77-1.607-1.706s0.732-1.691,1.628-1.687L653.952,319.368z"/>
					
						<ellipse transform="matrix(-0.006 1 -1 -0.006 937.7659 -326.0753)" fill="#457BBA" cx="630.938" cy="303.02" rx="1.696" ry="1.622"/>
					
						<ellipse transform="matrix(-0.006 1 -1 -0.006 947.1205 -335.2622)" fill="#8C9B56" cx="640.181" cy="303.075" rx="1.696" ry="1.621"/>
					
						<ellipse transform="matrix(-0.006 1 -1 -0.006 956.4841 -344.458)" fill="#457BBA" cx="649.433" cy="303.131" rx="1.696" ry="1.622"/>
					
						<ellipse transform="matrix(-0.006 1 -1 -0.006 956.8728 -315.9822)" fill="#8C9B56" cx="635.475" cy="317.561" rx="1.696" ry="1.622"/>
					
						<ellipse transform="matrix(-0.006 1 -1 -0.006 966.2249 -325.1694)" fill="#8C9B56" cx="644.717" cy="317.616" rx="1.696" ry="1.621"/>
					
						<ellipse transform="matrix(-0.006 1 -1 -0.006 947.2554 -325.7752)" fill="#8C9B56" cx="635.534" cy="307.886" rx="1.696" ry="1.621"/>
					
						<ellipse transform="matrix(-0.0058 1 -1 -0.0058 956.4237 -335.0505)" fill="#8C9B56" cx="644.775" cy="307.941" rx="1.696" ry="1.621"/>
					
						<ellipse transform="matrix(-0.006 1 -1 -0.006 947.3835 -316.2834)" fill="#8C9B56" cx="630.88" cy="312.695" rx="1.696" ry="1.622"/>
					
						<ellipse transform="matrix(-0.006 1 -1 -0.006 956.7382 -325.4703)" fill="#457BBA" cx="640.124" cy="312.751" rx="1.696" ry="1.62"/>
					
						<ellipse transform="matrix(-0.0058 1 -1 -0.0058 965.9139 -334.7578)" fill="#8C9B56" cx="649.375" cy="312.806" rx="1.696" ry="1.621"/>
					
						<ellipse transform="matrix(-0.006 1 -1 -0.006 957.0115 -306.4796)" fill="#457BBA" cx="630.822" cy="322.381" rx="1.696" ry="1.622"/>
					
						<ellipse transform="matrix(-0.006 1 -1 -0.006 966.3646 -315.6677)" fill="#8C9B56" cx="640.065" cy="322.437" rx="1.696" ry="1.621"/>
					
						<ellipse transform="matrix(-0.006 1 -1 -0.006 975.7281 -324.8634)" fill="#457BBA" cx="649.317" cy="322.492" rx="1.696" ry="1.621"/>
					<path fill="#457BBA" d="M626.264,309.526c0.896,0.005,1.627-0.75,1.633-1.688c0.006-0.937-0.716-1.7-1.612-1.705
						L626.264,309.526z"/>
					<path fill="#457BBA" d="M626.205,319.201c0.895,0.006,1.622-0.75,1.628-1.686c0.006-0.938-0.713-1.701-1.607-1.706
						L626.205,319.201z"/>
				</g>
				<g>
					
						<ellipse transform="matrix(-0.006 1 -1 -0.006 965.8447 -353.6509)" fill="#231F20" cx="658.682" cy="303.187" rx="1.696" ry="1.622"/>
					<path fill="#457BBA" d="M681.753,309.859c-0.896-0.005-1.616-0.77-1.61-1.706c0.005-0.937,0.734-1.691,1.631-1.687
						L681.753,309.859z"/>
					<path fill="#457BBA" d="M681.696,319.534c-0.896-0.005-1.613-0.769-1.607-1.705s0.732-1.692,1.628-1.687L681.696,319.534z"/>
					
						<ellipse transform="matrix(-0.006 1 -1 -0.006 965.8447 -353.6509)" fill="#457BBA" cx="658.682" cy="303.187" rx="1.696" ry="1.622"/>
					
						<ellipse transform="matrix(-0.006 1 -1 -0.006 975.2001 -362.8378)" fill="#8C9B56" cx="667.925" cy="303.242" rx="1.696" ry="1.621"/>
					
						<ellipse transform="matrix(-0.006 1 -1 -0.006 984.5636 -372.0336)" fill="#457BBA" cx="677.177" cy="303.297" rx="1.696" ry="1.622"/>
					
						<ellipse transform="matrix(-0.006 1 -1 -0.006 984.95 -343.559)" fill="#8C9B56" cx="663.219" cy="317.728" rx="1.696" ry="1.622"/>
					
						<ellipse transform="matrix(-0.006 1 -1 -0.006 994.3036 -352.745)" fill="#8C9B56" cx="672.461" cy="317.783" rx="1.696" ry="1.621"/>
					
						<ellipse transform="matrix(-0.006 1 -1 -0.006 975.3333 -353.3518)" fill="#8C9B56" cx="663.278" cy="308.052" rx="1.696" ry="1.621"/>
					
						<ellipse transform="matrix(-0.0058 1 -1 -0.0058 984.4935 -362.6272)" fill="#8C9B56" cx="672.52" cy="308.107" rx="1.696" ry="1.621"/>
					
						<ellipse transform="matrix(-0.006 1 -1 -0.006 975.4613 -343.86)" fill="#8C9B56" cx="658.625" cy="312.861" rx="1.696" ry="1.622"/>
					
						<ellipse transform="matrix(-0.006 1 -1 -0.006 984.816 -353.047)" fill="#457BBA" cx="667.868" cy="312.917" rx="1.696" ry="1.62"/>
					
						<ellipse transform="matrix(-0.0058 1 -1 -0.0058 993.9847 -362.3335)" fill="#8C9B56" cx="677.119" cy="312.973" rx="1.696" ry="1.621"/>
					
						<ellipse transform="matrix(-0.006 1 -1 -0.006 985.0887 -334.0563)" fill="#457BBA" cx="658.566" cy="322.548" rx="1.696" ry="1.622"/>
					
						<ellipse transform="matrix(-0.006 1 -1 -0.006 994.4442 -343.2432)" fill="#8C9B56" cx="667.809" cy="322.603" rx="1.696" ry="1.621"/>
					
						<ellipse transform="matrix(-0.006 1 -1 -0.006 1003.8077 -352.439)" fill="#457BBA" cx="677.061" cy="322.659" rx="1.696" ry="1.621"/>
					<path fill="#457BBA" d="M654.008,309.692c0.896,0.006,1.627-0.75,1.633-1.687s-0.716-1.7-1.612-1.706L654.008,309.692z"/>
					<path fill="#457BBA" d="M653.949,319.368c0.895,0.005,1.622-0.75,1.628-1.687s-0.713-1.7-1.607-1.706L653.949,319.368z"/>
				</g>
				<g>
					
						<ellipse transform="matrix(-0.006 1 -1 -0.006 993.9243 -381.2264)" fill="#231F20" cx="686.426" cy="303.353" rx="1.696" ry="1.622"/>
					<path fill="#457BBA" d="M709.497,310.026c-0.896-0.006-1.616-0.77-1.61-1.707c0.005-0.937,0.734-1.691,1.631-1.686
						L709.497,310.026z"/>
					<path fill="#457BBA" d="M709.44,319.701c-0.896-0.005-1.613-0.769-1.607-1.705c0.006-0.938,0.732-1.692,1.628-1.687
						L709.44,319.701z"/>
					
						<ellipse transform="matrix(-0.006 1 -1 -0.006 993.9243 -381.2264)" fill="#457BBA" cx="686.426" cy="303.353" rx="1.696" ry="1.622"/>
					
						<ellipse transform="matrix(-0.006 1 -1 -0.006 1003.2789 -390.4134)" fill="#8C9B56" cx="695.669" cy="303.409" rx="1.696" ry="1.621"/>
					
						<ellipse transform="matrix(-0.006 1 -1 -0.006 1012.6407 -399.6103)" fill="#457BBA" cx="704.921" cy="303.464" rx="1.696" ry="1.622"/>
					
						<ellipse transform="matrix(-0.006 1 -1 -0.006 1013.0295 -371.1345)" fill="#8C9B56" cx="690.963" cy="317.894" rx="1.696" ry="1.622"/>
					
						<ellipse transform="matrix(-0.006 1 -1 -0.006 1022.3833 -380.3206)" fill="#8C9B56" cx="700.206" cy="317.95" rx="1.696" ry="1.621"/>
					
						<ellipse transform="matrix(-0.006 1 -1 -0.006 1003.4121 -380.9275)" fill="#8C9B56" cx="691.022" cy="308.219" rx="1.696" ry="1.621"/>
					
						<ellipse transform="matrix(-0.0058 1 -1 -0.0058 1012.5644 -390.2029)" fill="#8C9B56" cx="700.264" cy="308.274" rx="1.696" ry="1.621"/>
					
						<ellipse transform="matrix(-0.006 1 -1 -0.006 1003.5402 -371.4356)" fill="#8C9B56" cx="686.369" cy="313.028" rx="1.696" ry="1.622"/>
					
						<ellipse transform="matrix(-0.006 1 -1 -0.006 1012.8949 -380.6226)" fill="#457BBA" cx="695.612" cy="313.084" rx="1.696" ry="1.62"/>
					
						<ellipse transform="matrix(-0.0058 1 -1 -0.0058 1022.0557 -389.9092)" fill="#8C9B56" cx="704.863" cy="313.14" rx="1.696" ry="1.621"/>
					
						<ellipse transform="matrix(-0.006 1 -1 -0.006 1013.1683 -361.6318)" fill="#457BBA" cx="686.31" cy="322.714" rx="1.696" ry="1.622"/>
					
						<ellipse transform="matrix(-0.006 1 -1 -0.006 1022.523 -370.8188)" fill="#8C9B56" cx="695.553" cy="322.77" rx="1.696" ry="1.621"/>
					
						<ellipse transform="matrix(-0.006 1 -1 -0.006 1031.8866 -380.0146)" fill="#457BBA" cx="704.805" cy="322.826" rx="1.696" ry="1.621"/>
					<path fill="#457BBA" d="M681.752,309.859c0.896,0.006,1.627-0.75,1.633-1.687s-0.716-1.7-1.612-1.706L681.752,309.859z"/>
					<path fill="#457BBA" d="M681.693,319.534c0.895,0.006,1.622-0.749,1.628-1.686c0.006-0.938-0.713-1.701-1.607-1.706
						L681.693,319.534z"/>
				</g>
				<g>
					
						<ellipse transform="matrix(-0.006 1 -1 -0.006 1022.0013 -408.8031)" fill="#231F20" cx="714.17" cy="303.52" rx="1.696" ry="1.622"/>
					<path fill="#457BBA" d="M737.241,310.192c-0.896-0.005-1.616-0.77-1.61-1.706c0.005-0.937,0.734-1.691,1.631-1.687
						L737.241,310.192z"/>
					<path fill="#457BBA" d="M737.185,319.868c-0.896-0.006-1.613-0.77-1.607-1.706s0.732-1.691,1.628-1.687L737.185,319.868z"/>
					
						<ellipse transform="matrix(-0.006 1 -1 -0.006 1022.0013 -408.8031)" fill="#457BBA" cx="714.17" cy="303.52" rx="1.696" ry="1.622"/>
					
						<ellipse transform="matrix(-0.006 1 -1 -0.006 1031.3561 -417.9901)" fill="#8C9B56" cx="723.414" cy="303.575" rx="1.696" ry="1.621"/>
					
						<ellipse transform="matrix(-0.006 1 -1 -0.006 1040.7196 -427.1859)" fill="#457BBA" cx="732.666" cy="303.631" rx="1.696" ry="1.622"/>
					
						<ellipse transform="matrix(-0.006 1 -1 -0.006 1041.1084 -398.7102)" fill="#8C9B56" cx="718.708" cy="318.061" rx="1.696" ry="1.622"/>
					
						<ellipse transform="matrix(-0.006 1 -1 -0.006 1050.4603 -407.8973)" fill="#8C9B56" cx="727.95" cy="318.116" rx="1.696" ry="1.621"/>
					
						<ellipse transform="matrix(-0.006 1 -1 -0.006 1031.491 -408.5031)" fill="#8C9B56" cx="718.766" cy="308.386" rx="1.696" ry="1.621"/>
					
						<ellipse transform="matrix(-0.0058 1 -1 -0.0058 1040.6353 -417.7786)" fill="#8C9B56" cx="728.008" cy="308.441" rx="1.696" ry="1.621"/>
					
						<ellipse transform="matrix(-0.006 1 -1 -0.006 1031.619 -399.0112)" fill="#8C9B56" cx="714.113" cy="313.195" rx="1.696" ry="1.622"/>
					
						<ellipse transform="matrix(-0.006 1 -1 -0.006 1040.9736 -408.1982)" fill="#457BBA" cx="723.356" cy="313.251" rx="1.696" ry="1.62"/>
					
						<ellipse transform="matrix(-0.0058 1 -1 -0.0058 1050.1255 -417.4859)" fill="#8C9B56" cx="732.607" cy="313.306" rx="1.696" ry="1.621"/>
					
						<ellipse transform="matrix(-0.006 1 -1 -0.006 1041.2472 -389.2075)" fill="#457BBA" cx="714.054" cy="322.881" rx="1.696" ry="1.622"/>
					
						<ellipse transform="matrix(-0.006 1 -1 -0.006 1050.6001 -398.3955)" fill="#8C9B56" cx="723.297" cy="322.937" rx="1.696" ry="1.621"/>
					
						<ellipse transform="matrix(-0.006 1 -1 -0.006 1059.9636 -407.5913)" fill="#457BBA" cx="732.549" cy="322.992" rx="1.696" ry="1.621"/>
					<path fill="#457BBA" d="M709.496,310.026c0.896,0.005,1.627-0.75,1.633-1.688c0.006-0.937-0.716-1.7-1.612-1.705
						L709.496,310.026z"/>
					<path fill="#457BBA" d="M709.438,319.701c0.895,0.006,1.622-0.75,1.628-1.686c0.006-0.938-0.713-1.701-1.607-1.706
						L709.438,319.701z"/>
				</g>
				<g>
					
						<ellipse transform="matrix(-0.006 1 -1 -0.006 1050.0802 -436.3788)" fill="#231F20" cx="741.915" cy="303.687" rx="1.696" ry="1.622"/>
					<path fill="#457BBA" d="M764.985,310.359c-0.896-0.005-1.616-0.77-1.61-1.706c0.005-0.937,0.734-1.691,1.631-1.687
						L764.985,310.359z"/>
					<path fill="#457BBA" d="M764.929,320.034c-0.896-0.005-1.613-0.769-1.607-1.705s0.732-1.692,1.628-1.687L764.929,320.034z"/>
					
						<ellipse transform="matrix(-0.006 1 -1 -0.006 1050.0802 -436.3788)" fill="#457BBA" cx="741.915" cy="303.687" rx="1.696" ry="1.622"/>
					
						<ellipse transform="matrix(-0.006 1 -1 -0.006 1059.4358 -445.5657)" fill="#8C9B56" cx="751.158" cy="303.742" rx="1.696" ry="1.621"/>
					
						<ellipse transform="matrix(-0.006 1 -1 -0.006 1068.7993 -454.7615)" fill="#457BBA" cx="760.41" cy="303.797" rx="1.696" ry="1.622"/>
					
						<ellipse transform="matrix(-0.006 1 -1 -0.006 1069.1855 -426.2869)" fill="#8C9B56" cx="746.452" cy="318.228" rx="1.696" ry="1.622"/>
					
						<ellipse transform="matrix(-0.006 1 -1 -0.006 1078.5392 -435.4728)" fill="#8C9B56" cx="755.694" cy="318.283" rx="1.696" ry="1.621"/>
					
						<ellipse transform="matrix(-0.006 1 -1 -0.006 1059.5688 -436.0797)" fill="#8C9B56" cx="746.51" cy="308.552" rx="1.696" ry="1.621"/>
					
						<ellipse transform="matrix(-0.0058 1 -1 -0.0058 1068.7051 -445.3553)" fill="#8C9B56" cx="755.752" cy="308.607" rx="1.696" ry="1.621"/>
					
						<ellipse transform="matrix(-0.006 1 -1 -0.006 1059.6969 -426.5879)" fill="#8C9B56" cx="741.857" cy="313.361" rx="1.696" ry="1.622"/>
					
						<ellipse transform="matrix(-0.006 1 -1 -0.006 1069.0515 -435.7748)" fill="#457BBA" cx="751.1" cy="313.417" rx="1.696" ry="1.62"/>
					
						<ellipse transform="matrix(-0.0058 1 -1 -0.0058 1078.1963 -445.0616)" fill="#8C9B56" cx="760.352" cy="313.473" rx="1.696" ry="1.621"/>
					
						<ellipse transform="matrix(-0.006 1 -1 -0.006 1069.3242 -416.7842)" fill="#457BBA" cx="741.798" cy="323.048" rx="1.696" ry="1.622"/>
					
						<ellipse transform="matrix(-0.006 1 -1 -0.006 1078.6798 -425.9711)" fill="#8C9B56" cx="751.042" cy="323.103" rx="1.696" ry="1.621"/>
					
						<ellipse transform="matrix(-0.006 1 -1 -0.006 1088.0433 -435.1669)" fill="#457BBA" cx="760.293" cy="323.159" rx="1.696" ry="1.621"/>
					<path fill="#457BBA" d="M737.24,310.192c0.896,0.006,1.627-0.75,1.633-1.687s-0.716-1.7-1.612-1.706L737.24,310.192z"/>
					<path fill="#457BBA" d="M737.182,319.868c0.895,0.005,1.622-0.75,1.628-1.687s-0.713-1.7-1.607-1.706L737.182,319.868z"/>
				</g>
			</g>
		</g>
	</g>
	<line fill="none" stroke="#AF0D8F" stroke-miterlimit="10" x1="763.251" y1="318" x2="763.251" y2="318"/>
	<g>
		<g>
			<g>
				<g>
					<ellipse fill="#231F20" cx="750.325" cy="311.984" rx="1.696" ry="2.104"/>
					<path fill="#457BBA" d="M756.859,281.998c0,1.163-0.76,2.104-1.697,2.104c-0.936,0-1.695-0.94-1.695-2.104H756.859z"/>
					<path fill="#457BBA" d="M766.535,281.996c0,1.162-0.76,2.099-1.696,2.099s-1.696-0.937-1.696-2.099H766.535z"/>
					<ellipse fill="#457BBA" cx="750.325" cy="311.984" rx="1.696" ry="2.104"/>
					<ellipse fill="#8C9B56" cx="750.325" cy="299.991" rx="1.696" ry="2.103"/>
					<ellipse fill="#457BBA" cx="750.325" cy="287.986" rx="1.696" ry="2.104"/>
					<ellipse fill="#8C9B56" cx="764.839" cy="305.984" rx="1.696" ry="2.104"/>
					<ellipse fill="#8C9B56" cx="764.839" cy="293.992" rx="1.696" ry="2.104"/>
					<ellipse fill="#8C9B56" cx="755.163" cy="305.984" rx="1.696" ry="2.104"/>
					<ellipse fill="#8C9B56" cx="755.163" cy="293.992" rx="1.696" ry="2.104"/>
					<ellipse fill="#8C9B56" cx="760.001" cy="311.984" rx="1.696" ry="2.104"/>
					<ellipse fill="#457BBA" cx="760.001" cy="299.991" rx="1.696" ry="2.103"/>
					<ellipse fill="#8C9B56" cx="760.001" cy="287.986" rx="1.696" ry="2.104"/>
					<ellipse fill="#457BBA" cx="769.687" cy="311.984" rx="1.696" ry="2.104"/>
					<ellipse fill="#8C9B56" cx="769.687" cy="299.991" rx="1.696" ry="2.103"/>
					<ellipse fill="#457BBA" cx="769.687" cy="287.986" rx="1.696" ry="2.104"/>
					<path fill="#457BBA" d="M756.859,317.999c0-1.163-0.76-2.104-1.697-2.104c-0.936,0-1.695,0.941-1.695,2.104H756.859z"/>
					<path fill="#457BBA" d="M766.535,318c0-1.161-0.76-2.1-1.696-2.1s-1.696,0.938-1.696,2.1H766.535z"/>
				</g>
				<g>
					<ellipse fill="#231F20" cx="750.325" cy="275.984" rx="1.696" ry="2.104"/>
					<path fill="#457BBA" d="M756.859,245.998c0,1.163-0.76,2.104-1.697,2.104c-0.936,0-1.695-0.94-1.695-2.104H756.859z"/>
					<path fill="#457BBA" d="M766.535,245.996c0,1.162-0.76,2.1-1.696,2.1s-1.696-0.938-1.696-2.1H766.535z"/>
					<ellipse fill="#457BBA" cx="750.325" cy="275.984" rx="1.696" ry="2.104"/>
					<ellipse fill="#8C9B56" cx="750.325" cy="263.991" rx="1.696" ry="2.102"/>
					<ellipse fill="#457BBA" cx="750.325" cy="251.986" rx="1.696" ry="2.104"/>
					<ellipse fill="#8C9B56" cx="764.839" cy="269.984" rx="1.696" ry="2.104"/>
					<ellipse fill="#8C9B56" cx="764.839" cy="257.992" rx="1.696" ry="2.104"/>
					<ellipse fill="#8C9B56" cx="755.163" cy="269.984" rx="1.696" ry="2.104"/>
					<ellipse fill="#8C9B56" cx="755.163" cy="257.992" rx="1.696" ry="2.104"/>
					<ellipse fill="#8C9B56" cx="760.001" cy="275.984" rx="1.696" ry="2.104"/>
					<ellipse fill="#457BBA" cx="760.001" cy="263.991" rx="1.696" ry="2.102"/>
					<ellipse fill="#8C9B56" cx="760.001" cy="251.986" rx="1.696" ry="2.104"/>
					<ellipse fill="#457BBA" cx="769.687" cy="275.984" rx="1.696" ry="2.104"/>
					<ellipse fill="#8C9B56" cx="769.687" cy="263.991" rx="1.696" ry="2.102"/>
					<ellipse fill="#457BBA" cx="769.687" cy="251.986" rx="1.696" ry="2.104"/>
					<path fill="#457BBA" d="M756.859,281.999c0-1.163-0.76-2.105-1.697-2.105c-0.936,0-1.695,0.942-1.695,2.105H756.859z"/>
					<path fill="#457BBA" d="M766.535,282c0-1.161-0.76-2.099-1.696-2.099s-1.696,0.938-1.696,2.099H766.535z"/>
				</g>
			</g>
		</g>
	</g>
	<g>
		<g>
			<g>
				<g>
					
						<ellipse transform="matrix(1 -0.0095 0.0095 1 -3.2931 1.7595)" fill="#231F20" cx="183.561" cy="347.514" rx="1.696" ry="1.622"/>
					<path fill="#457BBA" d="M189.872,324.342c0.009,0.896-0.744,1.628-1.681,1.637c-0.937,0.01-1.703-0.708-1.711-1.604
						L189.872,324.342z"/>
					<path fill="#457BBA" d="M199.546,324.246c0.009,0.896-0.744,1.625-1.68,1.635c-0.937,0.009-1.703-0.706-1.712-1.602
						L199.546,324.246z"/>
					
						<ellipse transform="matrix(1 -0.0095 0.0095 1 -3.2931 1.7595)" fill="#457BBA" cx="183.561" cy="347.514" rx="1.696" ry="1.622"/>
					
						<ellipse transform="matrix(1 -0.0098 0.0098 1 -3.3022 1.812)" fill="#8C9B56" cx="183.471" cy="338.271" rx="1.696" ry="1.62"/>
					
						<ellipse transform="matrix(1 -0.0098 0.0098 1 -3.2116 1.8107)" fill="#457BBA" cx="183.382" cy="329.02" rx="1.696" ry="1.621"/>
					
						<ellipse transform="matrix(1 -0.0098 0.0098 1 -3.3453 1.9547)" fill="#8C9B56" cx="198.029" cy="342.75" rx="1.696" ry="1.621"/>
					
						<ellipse transform="matrix(1 -0.0098 0.0098 1 -3.2549 1.9534)" fill="#8C9B56" cx="197.94" cy="333.508" rx="1.696" ry="1.621"/>
					
						<ellipse transform="matrix(1 -0.0095 0.0095 1 -3.2481 1.8046)" fill="#8C9B56" cx="188.354" cy="342.843" rx="1.696" ry="1.621"/>
					
						<ellipse transform="matrix(1 -0.0098 0.0098 1 -3.2558 1.8584)" fill="#8C9B56" cx="188.265" cy="333.602" rx="1.696" ry="1.621"/>
					
						<ellipse transform="matrix(1 -0.0095 0.0095 1 -3.2913 1.8512)" fill="#8C9B56" cx="193.236" cy="347.42" rx="1.696" ry="1.622"/>
					
						<ellipse transform="matrix(1 -0.0098 0.0098 1 -3.3003 1.9064)" fill="#457BBA" cx="193.146" cy="338.178" rx="1.696" ry="1.62"/>
					
						<ellipse transform="matrix(1 -0.0095 0.0095 1 -3.1157 1.8486)" fill="#8C9B56" cx="193.057" cy="328.926" rx="1.696" ry="1.622"/>
					
						<ellipse transform="matrix(1 -0.0098 0.0098 1 -3.3899 2.0028)" fill="#457BBA" cx="202.922" cy="347.327" rx="1.696" ry="1.622"/>
					
						<ellipse transform="matrix(1 -0.0098 0.0098 1 -3.2994 2.0015)" fill="#8C9B56" cx="202.832" cy="338.084" rx="1.696" ry="1.62"/>
					
						<ellipse transform="matrix(1 -0.0095 0.0095 1 -3.1148 1.9409)" fill="#457BBA" cx="202.743" cy="328.833" rx="1.696" ry="1.622"/>
					<path fill="#457BBA" d="M190.14,352.087c-0.008-0.896-0.775-1.615-1.712-1.606c-0.937,0.009-1.688,0.742-1.68,1.639
						L190.14,352.087z"/>
					<path fill="#457BBA" d="M199.814,351.993c-0.008-0.895-0.775-1.61-1.711-1.602c-0.937,0.01-1.689,0.739-1.681,1.635
						L199.814,351.993z"/>
				</g>
				<g>
					
						<ellipse transform="matrix(1 -0.0098 0.0098 1 -3.1211 1.8094)" fill="#231F20" cx="183.293" cy="319.771" rx="1.696" ry="1.622"/>
					<path fill="#457BBA" d="M189.604,296.598c0.008,0.896-0.744,1.628-1.681,1.638c-0.937,0.009-1.703-0.709-1.711-1.605
						L189.604,296.598z"/>
					<path fill="#457BBA" d="M199.278,296.503c0.008,0.896-0.744,1.625-1.68,1.634c-0.937,0.009-1.703-0.706-1.712-1.602
						L199.278,296.503z"/>
					
						<ellipse transform="matrix(1 -0.0098 0.0098 1 -3.1211 1.8094)" fill="#457BBA" cx="183.293" cy="319.771" rx="1.696" ry="1.622"/>
					
						<ellipse transform="matrix(1 -0.0098 0.0098 1 -3.0306 1.8081)" fill="#8C9B56" cx="183.203" cy="310.527" rx="1.696" ry="1.62"/>
					
						<ellipse transform="matrix(1 -0.0095 0.0095 1 -2.8543 1.7534)" fill="#457BBA" cx="183.114" cy="301.276" rx="1.696" ry="1.622"/>
					
						<ellipse transform="matrix(1 -0.0098 0.0098 1 -3.0738 1.9508)" fill="#8C9B56" cx="197.761" cy="315.006" rx="1.696" ry="1.621"/>
					
						<ellipse transform="matrix(1 -0.0095 0.0095 1 -2.8959 1.8917)" fill="#8C9B56" cx="197.672" cy="305.764" rx="1.696" ry="1.622"/>
					
						<ellipse transform="matrix(1 -0.0098 0.0098 1 -3.0747 1.8558)" fill="#8C9B56" cx="188.086" cy="315.1" rx="1.696" ry="1.621"/>
					
						<ellipse transform="matrix(1 -0.0098 0.0098 1 -2.9843 1.8545)" fill="#8C9B56" cx="187.997" cy="305.857" rx="1.696" ry="1.621"/>
					
						<ellipse transform="matrix(1 -0.0098 0.0098 1 -3.1193 1.9038)" fill="#8C9B56" cx="192.968" cy="319.677" rx="1.696" ry="1.622"/>
					
						<ellipse transform="matrix(1 -0.0095 0.0095 1 -2.94 1.8461)" fill="#457BBA" cx="192.878" cy="310.434" rx="1.696" ry="1.621"/>
					
						<ellipse transform="matrix(1 -0.0095 0.0095 1 -2.8521 1.8448)" fill="#8C9B56" cx="192.789" cy="301.182" rx="1.696" ry="1.621"/>
					
						<ellipse transform="matrix(1 -0.0098 0.0098 1 -3.1183 1.9989)" fill="#457BBA" cx="202.654" cy="319.583" rx="1.696" ry="1.621"/>
					
						<ellipse transform="matrix(1 -0.0095 0.0095 1 -2.9391 1.9384)" fill="#8C9B56" cx="202.564" cy="310.34" rx="1.696" ry="1.621"/>
					
						<ellipse transform="matrix(1 -0.0098 0.0098 1 -2.9373 1.9962)" fill="#457BBA" cx="202.475" cy="301.089" rx="1.696" ry="1.621"/>
					<path fill="#457BBA" d="M189.872,324.343c-0.009-0.896-0.775-1.615-1.712-1.606c-0.937,0.01-1.688,0.743-1.68,1.64
						L189.872,324.343z"/>
					<path fill="#457BBA" d="M199.546,324.25c-0.009-0.896-0.775-1.611-1.711-1.602c-0.937,0.009-1.689,0.739-1.681,1.634
						L199.546,324.25z"/>
				</g>
				<g>
					
						<ellipse transform="matrix(1 -0.0098 0.0098 1 -2.85 1.8057)" fill="#231F20" cx="183.024" cy="292.026" rx="1.696" ry="1.621"/>
					<path fill="#457BBA" d="M189.335,268.854c0.009,0.896-0.744,1.628-1.681,1.638s-1.703-0.708-1.711-1.604L189.335,268.854z"/>
					<path fill="#457BBA" d="M199.01,268.759c0.009,0.896-0.744,1.625-1.68,1.634c-0.937,0.009-1.704-0.706-1.712-1.602
						L199.01,268.759z"/>
					
						<ellipse transform="matrix(1 -0.0098 0.0098 1 -2.85 1.8057)" fill="#457BBA" cx="183.024" cy="292.026" rx="1.696" ry="1.621"/>
					
						<ellipse transform="matrix(1 -0.0095 0.0095 1 -2.6786 1.7509)" fill="#8C9B56" cx="182.935" cy="282.784" rx="1.696" ry="1.621"/>
					
						<ellipse transform="matrix(1 -0.0096 0.0096 1 -2.6294 1.7761)" fill="#457BBA" cx="182.845" cy="273.532" rx="1.696" ry="1.621"/>
					
						<ellipse transform="matrix(1 -0.0095 0.0095 1 -2.7205 1.8894)" fill="#8C9B56" cx="197.493" cy="287.262" rx="1.696" ry="1.622"/>
					
						<ellipse transform="matrix(1 -0.0096 0.0096 1 -2.6724 1.917)" fill="#8C9B56" cx="197.403" cy="278.02" rx="1.696" ry="1.621"/>
					
						<ellipse transform="matrix(1 -0.0098 0.0098 1 -2.8036 1.8521)" fill="#8C9B56" cx="187.818" cy="287.355" rx="1.696" ry="1.621"/>
					
						<ellipse transform="matrix(1 -0.0096 0.0096 1 -2.6734 1.8234)" fill="#8C9B56" cx="187.728" cy="278.114" rx="1.696" ry="1.621"/>
					
						<ellipse transform="matrix(1 -0.0098 0.0098 1 -2.8482 1.9001)" fill="#8C9B56" cx="192.699" cy="291.933" rx="1.696" ry="1.621"/>
					
						<ellipse transform="matrix(1 -0.0095 0.0095 1 -2.6769 1.8426)" fill="#457BBA" cx="192.61" cy="282.69" rx="1.696" ry="1.62"/>
					
						<ellipse transform="matrix(1 -0.0098 0.0098 1 -2.6668 1.8972)" fill="#8C9B56" cx="192.521" cy="273.438" rx="1.696" ry="1.621"/>
					
						<ellipse transform="matrix(1 -0.0095 0.0095 1 -2.7638 1.9361)" fill="#457BBA" cx="202.385" cy="291.839" rx="1.696" ry="1.622"/>
					
						<ellipse transform="matrix(1 -0.0098 0.0098 1 -2.7567 1.9939)" fill="#8C9B56" cx="202.296" cy="282.597" rx="1.696" ry="1.621"/>
					
						<ellipse transform="matrix(1 -0.0096 0.0096 1 -2.6271 1.963)" fill="#457BBA" cx="202.207" cy="273.345" rx="1.696" ry="1.621"/>
					<path fill="#457BBA" d="M189.604,296.599c-0.009-0.896-0.775-1.615-1.712-1.605c-0.937,0.009-1.689,0.742-1.68,1.639
						L189.604,296.599z"/>
					<path fill="#457BBA" d="M199.278,296.506c-0.009-0.896-0.775-1.61-1.711-1.602c-0.937,0.009-1.689,0.739-1.681,1.635
						L199.278,296.506z"/>
				</g>
				<g>
					
						<ellipse transform="matrix(1 -0.0096 0.0096 1 -2.5402 1.7748)" fill="#231F20" cx="182.756" cy="264.282" rx="1.696" ry="1.621"/>
					<path fill="#457BBA" d="M189.067,241.11c0.009,0.896-0.744,1.628-1.681,1.638c-0.937,0.009-1.703-0.708-1.711-1.605
						L189.067,241.11z"/>
					<path fill="#457BBA" d="M198.742,241.015c0.009,0.896-0.744,1.625-1.68,1.634c-0.937,0.009-1.703-0.706-1.712-1.602
						L198.742,241.015z"/>
					
						<ellipse transform="matrix(1 -0.0096 0.0096 1 -2.5402 1.7748)" fill="#457BBA" cx="182.756" cy="264.282" rx="1.696" ry="1.621"/>
					
						<ellipse transform="matrix(1 -0.0096 0.0096 1 -2.4511 1.7735)" fill="#8C9B56" cx="182.667" cy="255.04" rx="1.696" ry="1.62"/>
					
						<ellipse transform="matrix(1 -0.0096 0.0096 1 -2.3619 1.7722)" fill="#457BBA" cx="182.577" cy="245.788" rx="1.696" ry="1.621"/>
					
						<ellipse transform="matrix(1 -0.0096 0.0096 1 -2.4936 1.9141)" fill="#8C9B56" cx="197.224" cy="259.518" rx="1.696" ry="1.621"/>
					
						<ellipse transform="matrix(1 -0.0096 0.0096 1 -2.4045 1.9128)" fill="#8C9B56" cx="197.135" cy="250.277" rx="1.696" ry="1.621"/>
					
						<ellipse transform="matrix(1 -0.0096 0.0096 1 -2.4946 1.8206)" fill="#8C9B56" cx="187.549" cy="259.612" rx="1.696" ry="1.621"/>
					
						<ellipse transform="matrix(1 -0.0096 0.0096 1 -2.4055 1.8192)" fill="#8C9B56" cx="187.46" cy="250.37" rx="1.696" ry="1.621"/>
					
						<ellipse transform="matrix(1 -0.0096 0.0096 1 -2.5385 1.8678)" fill="#8C9B56" cx="192.431" cy="264.189" rx="1.696" ry="1.622"/>
					
						<ellipse transform="matrix(1 -0.0098 0.0098 1 -2.4858 1.8946)" fill="#457BBA" cx="192.342" cy="254.946" rx="1.696" ry="1.62"/>
					
						<ellipse transform="matrix(1 -0.0096 0.0096 1 -2.3602 1.8652)" fill="#8C9B56" cx="192.252" cy="245.695" rx="1.696" ry="1.621"/>
					
						<ellipse transform="matrix(1 -0.0096 0.0096 1 -2.5375 1.9615)" fill="#457BBA" cx="202.117" cy="264.095" rx="1.696" ry="1.622"/>
					
						<ellipse transform="matrix(1 -0.0096 0.0096 1 -2.4484 1.9602)" fill="#8C9B56" cx="202.028" cy="254.853" rx="1.696" ry="1.62"/>
					
						<ellipse transform="matrix(1 -0.0096 0.0096 1 -2.3592 1.9589)" fill="#457BBA" cx="201.938" cy="245.601" rx="1.696" ry="1.621"/>
					<path fill="#457BBA" d="M189.335,268.855c-0.008-0.896-0.775-1.615-1.712-1.606c-0.937,0.009-1.688,0.742-1.68,1.639
						L189.335,268.855z"/>
					<path fill="#457BBA" d="M199.01,268.762c-0.008-0.895-0.775-1.611-1.711-1.602c-0.937,0.009-1.689,0.739-1.681,1.634
						L199.01,268.762z"/>
				</g>
				<g>
					
						<ellipse transform="matrix(1 -0.0096 0.0096 1 -2.2727 1.7709)" fill="#231F20" cx="182.488" cy="236.539" rx="1.696" ry="1.622"/>
					<path fill="#457BBA" d="M188.799,213.366c0.008,0.896-0.744,1.628-1.681,1.637c-0.937,0.009-1.703-0.708-1.711-1.604
						L188.799,213.366z"/>
					<path fill="#457BBA" d="M198.474,213.271c0.008,0.896-0.744,1.625-1.68,1.634c-0.937,0.009-1.703-0.706-1.712-1.602
						L198.474,213.271z"/>
					
						<ellipse transform="matrix(1 -0.0096 0.0096 1 -2.2727 1.7709)" fill="#457BBA" cx="182.488" cy="236.539" rx="1.696" ry="1.622"/>
					
						<ellipse transform="matrix(1 -0.0096 0.0096 1 -2.1836 1.7696)" fill="#8C9B56" cx="182.399" cy="227.296" rx="1.696" ry="1.62"/>
					
						<ellipse transform="matrix(1 -0.0096 0.0096 1 -2.0947 1.7686)" fill="#457BBA" cx="182.309" cy="218.044" rx="1.696" ry="1.621"/>
					
						<ellipse transform="matrix(1 -0.0096 0.0096 1 -2.2261 1.9102)" fill="#8C9B56" cx="196.956" cy="231.775" rx="1.696" ry="1.621"/>
					
						<ellipse transform="matrix(1 -0.0096 0.0096 1 -2.1369 1.9089)" fill="#8C9B56" cx="196.867" cy="222.532" rx="1.696" ry="1.621"/>
					
						<ellipse transform="matrix(1 -0.0096 0.0096 1 -2.2271 1.8167)" fill="#8C9B56" cx="187.281" cy="231.868" rx="1.696" ry="1.621"/>
					
						<ellipse transform="matrix(1 -0.0096 0.0096 1 -2.138 1.8154)" fill="#8C9B56" cx="187.192" cy="222.626" rx="1.696" ry="1.621"/>
					
						<ellipse transform="matrix(1 -0.0098 0.0098 1 -2.3048 1.8919)" fill="#8C9B56" cx="192.163" cy="236.445" rx="1.696" ry="1.622"/>
					
						<ellipse transform="matrix(1 -0.0096 0.0096 1 -2.1819 1.8627)" fill="#457BBA" cx="192.074" cy="227.202" rx="1.696" ry="1.62"/>
					
						<ellipse transform="matrix(1 -0.0096 0.0096 1 -2.0927 1.8614)" fill="#8C9B56" cx="191.984" cy="217.951" rx="1.696" ry="1.621"/>
					
						<ellipse transform="matrix(1 -0.0096 0.0096 1 -2.27 1.9576)" fill="#457BBA" cx="201.849" cy="236.352" rx="1.696" ry="1.622"/>
					
						<ellipse transform="matrix(1 -0.0096 0.0096 1 -2.1808 1.9563)" fill="#8C9B56" cx="201.76" cy="227.109" rx="1.696" ry="1.62"/>
					
						<ellipse transform="matrix(1 -0.0096 0.0096 1 -2.0916 1.955)" fill="#457BBA" cx="201.67" cy="217.857" rx="1.696" ry="1.621"/>
					<path fill="#457BBA" d="M189.067,241.111c-0.009-0.896-0.775-1.615-1.712-1.606c-0.937,0.009-1.688,0.742-1.68,1.639
						L189.067,241.111z"/>
					<path fill="#457BBA" d="M198.742,241.018c-0.009-0.895-0.775-1.61-1.711-1.601c-0.937,0.009-1.689,0.739-1.681,1.634
						L198.742,241.018z"/>
				</g>
				<g>
					
						<ellipse transform="matrix(1 -0.0096 0.0096 1 -2.0054 1.7673)" fill="#231F20" cx="182.22" cy="208.795" rx="1.696" ry="1.622"/>
					<path fill="#457BBA" d="M188.53,185.622c0.009,0.896-0.744,1.628-1.681,1.638s-1.703-0.708-1.711-1.604L188.53,185.622z"/>
					<path fill="#457BBA" d="M198.205,185.527c0.009,0.896-0.744,1.625-1.68,1.634c-0.937,0.009-1.704-0.706-1.712-1.602
						L198.205,185.527z"/>
					
						<ellipse transform="matrix(1 -0.0096 0.0096 1 -2.0054 1.7673)" fill="#457BBA" cx="182.22" cy="208.795" rx="1.696" ry="1.622"/>
					
						<ellipse transform="matrix(1 -0.0096 0.0096 1 -1.9163 1.766)" fill="#8C9B56" cx="182.13" cy="199.552" rx="1.696" ry="1.62"/>
					
						<ellipse transform="matrix(1 -0.0096 0.0096 1 -1.8268 1.7645)" fill="#457BBA" cx="182.041" cy="190.301" rx="1.696" ry="1.621"/>
					
						<ellipse transform="matrix(1 -0.0096 0.0096 1 -1.9588 1.9066)" fill="#8C9B56" cx="196.688" cy="204.031" rx="1.696" ry="1.621"/>
					
						<ellipse transform="matrix(1 -0.0096 0.0096 1 -1.8697 1.9053)" fill="#8C9B56" cx="196.599" cy="194.789" rx="1.696" ry="1.621"/>
					
						<ellipse transform="matrix(1 -0.0096 0.0096 1 -1.9599 1.813)" fill="#8C9B56" cx="187.013" cy="204.124" rx="1.696" ry="1.621"/>
					
						<ellipse transform="matrix(1 -0.0096 0.0096 1 -1.8707 1.8118)" fill="#8C9B56" cx="186.924" cy="194.883" rx="1.696" ry="1.621"/>
					
						<ellipse transform="matrix(1 -0.0096 0.0096 1 -2.0038 1.8603)" fill="#8C9B56" cx="191.895" cy="208.701" rx="1.696" ry="1.621"/>
					
						<ellipse transform="matrix(1 -0.0096 0.0096 1 -1.9147 1.8591)" fill="#457BBA" cx="191.805" cy="199.459" rx="1.696" ry="1.62"/>
					
						<ellipse transform="matrix(1 -0.0096 0.0096 1 -1.8252 1.8575)" fill="#8C9B56" cx="191.716" cy="190.207" rx="1.696" ry="1.621"/>
					
						<ellipse transform="matrix(1 -0.0096 0.0096 1 -2.0027 1.954)" fill="#457BBA" cx="201.581" cy="208.608" rx="1.696" ry="1.621"/>
					
						<ellipse transform="matrix(1 -0.0096 0.0096 1 -1.9136 1.9527)" fill="#8C9B56" cx="201.491" cy="199.365" rx="1.696" ry="1.62"/>
					
						<ellipse transform="matrix(1 -0.0096 0.0096 1 -1.8244 1.9514)" fill="#457BBA" cx="201.402" cy="190.114" rx="1.696" ry="1.621"/>
					<path fill="#457BBA" d="M188.799,213.368c-0.009-0.896-0.775-1.615-1.712-1.606c-0.937,0.009-1.689,0.743-1.68,1.639
						L188.799,213.368z"/>
					<path fill="#457BBA" d="M198.474,213.274c-0.009-0.895-0.775-1.61-1.711-1.602c-0.937,0.009-1.689,0.739-1.681,1.634
						L198.474,213.274z"/>
				</g>
			</g>
		</g>
	</g>
	<line fill="none" stroke="#AF0D8F" stroke-miterlimit="10" x1="158.831" y1="242.318" x2="158.831" y2="242.318"/>
	<g>
		<g>
			<g>
				<g>
					<ellipse fill="#231F20" cx="190.337" cy="180.885" rx="1.58" ry="1.696"/>
					<path fill="#457BBA" d="M212.868,187.378c-0.874,0.001-1.581-0.757-1.583-1.694c-0.001-0.937,0.703-1.697,1.577-1.699
						L212.868,187.378z"/>
					<path fill="#457BBA" d="M212.888,197.053c-0.873,0.001-1.578-0.756-1.58-1.693c-0.002-0.937,0.701-1.698,1.573-1.699
						L212.888,197.053z"/>
					<ellipse fill="#457BBA" cx="190.337" cy="180.885" rx="1.58" ry="1.696"/>
					<ellipse fill="#8C9B56" cx="199.344" cy="180.869" rx="1.579" ry="1.696"/>
					<ellipse fill="#457BBA" cx="208.359" cy="180.852" rx="1.58" ry="1.696"/>
					<ellipse fill="#8C9B56" cx="194.869" cy="195.391" rx="1.58" ry="1.696"/>
					<ellipse fill="#8C9B56" cx="203.875" cy="195.374" rx="1.58" ry="1.696"/>
					<ellipse fill="#8C9B56" cx="194.851" cy="185.715" rx="1.58" ry="1.696"/>
					<ellipse fill="#8C9B56" cx="203.857" cy="185.698" rx="1.58" ry="1.696"/>
					<ellipse fill="#8C9B56" cx="190.355" cy="190.561" rx="1.58" ry="1.696"/>
					<ellipse fill="#457BBA" cx="199.362" cy="190.544" rx="1.579" ry="1.696"/>
					<ellipse fill="#8C9B56" cx="208.377" cy="190.527" rx="1.58" ry="1.696"/>
					<ellipse fill="#457BBA" cx="190.373" cy="200.247" rx="1.58" ry="1.696"/>
					<ellipse fill="#8C9B56" cx="199.38" cy="200.23" rx="1.578" ry="1.696"/>
					<ellipse fill="#457BBA" cx="208.395" cy="200.214" rx="1.58" ry="1.696"/>
					<path fill="#457BBA" d="M185.832,187.428c0.874-0.001,1.58-0.763,1.578-1.7c-0.002-0.937-0.711-1.694-1.584-1.693
						L185.832,187.428z"/>
					<path fill="#457BBA" d="M185.849,197.104c0.872-0.001,1.575-0.762,1.573-1.699c-0.001-0.937-0.708-1.695-1.58-1.693
						L185.849,197.104z"/>
				</g>
				<g>
					<ellipse fill="#231F20" cx="217.372" cy="180.835" rx="1.58" ry="1.696"/>
					<path fill="#457BBA" d="M239.904,187.328c-0.874,0.001-1.582-0.757-1.583-1.694c-0.002-0.937,0.703-1.697,1.577-1.699
						L239.904,187.328z"/>
					<path fill="#457BBA" d="M239.923,197.003c-0.873,0.001-1.578-0.756-1.58-1.693c-0.002-0.937,0.701-1.698,1.573-1.699
						L239.923,197.003z"/>
					<ellipse fill="#457BBA" cx="217.372" cy="180.835" rx="1.58" ry="1.696"/>
					<ellipse fill="#8C9B56" cx="226.379" cy="180.818" rx="1.579" ry="1.696"/>
					<ellipse fill="#457BBA" cx="235.394" cy="180.802" rx="1.58" ry="1.696"/>
					<ellipse fill="#8C9B56" cx="221.905" cy="195.341" rx="1.579" ry="1.696"/>
					<ellipse fill="#8C9B56" cx="230.911" cy="195.323" rx="1.579" ry="1.696"/>
					<ellipse fill="#8C9B56" cx="221.887" cy="185.665" rx="1.58" ry="1.696"/>
					<ellipse fill="#8C9B56" cx="230.893" cy="185.648" rx="1.58" ry="1.696"/>
					<ellipse fill="#8C9B56" cx="217.39" cy="190.511" rx="1.58" ry="1.696"/>
					<ellipse fill="#457BBA" cx="226.397" cy="190.494" rx="1.579" ry="1.696"/>
					<ellipse fill="#8C9B56" cx="235.412" cy="190.477" rx="1.579" ry="1.696"/>
					<ellipse fill="#457BBA" cx="217.408" cy="200.197" rx="1.58" ry="1.696"/>
					<ellipse fill="#8C9B56" cx="226.415" cy="200.18" rx="1.579" ry="1.696"/>
					<ellipse fill="#457BBA" cx="235.43" cy="200.163" rx="1.579" ry="1.696"/>
					<path fill="#457BBA" d="M212.867,187.378c0.874-0.001,1.58-0.763,1.578-1.7c-0.002-0.937-0.711-1.694-1.584-1.693
						L212.867,187.378z"/>
					<path fill="#457BBA" d="M212.884,197.053c0.873-0.001,1.575-0.762,1.574-1.699c-0.002-0.937-0.708-1.695-1.58-1.693
						L212.884,197.053z"/>
				</g>
				<g>
					<ellipse fill="#231F20" cx="244.407" cy="180.785" rx="1.58" ry="1.696"/>
					<path fill="#457BBA" d="M266.939,187.277c-0.874,0.001-1.581-0.757-1.583-1.694c-0.001-0.937,0.703-1.697,1.577-1.699
						L266.939,187.277z"/>
					<path fill="#457BBA" d="M266.958,196.953c-0.873,0.001-1.578-0.756-1.58-1.693c-0.001-0.937,0.701-1.698,1.574-1.699
						L266.958,196.953z"/>
					<ellipse fill="#457BBA" cx="244.407" cy="180.785" rx="1.58" ry="1.696"/>
					<ellipse fill="#8C9B56" cx="253.414" cy="180.768" rx="1.579" ry="1.696"/>
					<ellipse fill="#457BBA" cx="262.429" cy="180.751" rx="1.58" ry="1.696"/>
					<ellipse fill="#8C9B56" cx="248.94" cy="195.29" rx="1.58" ry="1.696"/>
					<ellipse fill="#8C9B56" cx="257.946" cy="195.273" rx="1.58" ry="1.696"/>
					<ellipse fill="#8C9B56" cx="248.922" cy="185.615" rx="1.58" ry="1.696"/>
					<ellipse fill="#8C9B56" cx="257.928" cy="185.598" rx="1.58" ry="1.696"/>
					<ellipse fill="#8C9B56" cx="244.426" cy="190.46" rx="1.58" ry="1.696"/>
					<ellipse fill="#457BBA" cx="253.432" cy="190.443" rx="1.579" ry="1.696"/>
					<ellipse fill="#8C9B56" cx="262.448" cy="190.427" rx="1.58" ry="1.696"/>
					<ellipse fill="#457BBA" cx="244.443" cy="200.147" rx="1.58" ry="1.696"/>
					<ellipse fill="#8C9B56" cx="253.45" cy="200.13" rx="1.579" ry="1.696"/>
					<ellipse fill="#457BBA" cx="262.466" cy="200.113" rx="1.58" ry="1.696"/>
					<path fill="#457BBA" d="M239.902,187.328c0.874-0.001,1.58-0.763,1.578-1.7c-0.001-0.937-0.71-1.694-1.584-1.693
						L239.902,187.328z"/>
					<path fill="#457BBA" d="M239.92,197.003c0.872-0.001,1.575-0.762,1.573-1.699c-0.002-0.937-0.708-1.695-1.58-1.693
						L239.92,197.003z"/>
				</g>
				<g>
					<ellipse fill="#231F20" cx="271.443" cy="180.735" rx="1.58" ry="1.696"/>
					<path fill="#457BBA" d="M293.974,187.227c-0.874,0.001-1.581-0.757-1.583-1.694c-0.002-0.937,0.703-1.697,1.576-1.699
						L293.974,187.227z"/>
					<path fill="#457BBA" d="M293.994,196.902c-0.873,0.001-1.578-0.756-1.58-1.693c-0.002-0.937,0.701-1.698,1.573-1.699
						L293.994,196.902z"/>
					<ellipse fill="#457BBA" cx="271.443" cy="180.735" rx="1.58" ry="1.696"/>
					<ellipse fill="#8C9B56" cx="280.449" cy="180.718" rx="1.579" ry="1.696"/>
					<ellipse fill="#457BBA" cx="289.465" cy="180.701" rx="1.579" ry="1.696"/>
					<ellipse fill="#8C9B56" cx="275.976" cy="195.24" rx="1.58" ry="1.696"/>
					<ellipse fill="#8C9B56" cx="284.981" cy="195.223" rx="1.58" ry="1.696"/>
					<ellipse fill="#8C9B56" cx="275.958" cy="185.564" rx="1.579" ry="1.696"/>
					<ellipse fill="#8C9B56" cx="284.964" cy="185.547" rx="1.579" ry="1.696"/>
					<ellipse fill="#8C9B56" cx="271.461" cy="190.41" rx="1.58" ry="1.696"/>
					<ellipse fill="#457BBA" cx="280.468" cy="190.393" rx="1.579" ry="1.696"/>
					<ellipse fill="#8C9B56" cx="289.483" cy="190.376" rx="1.58" ry="1.696"/>
					<ellipse fill="#457BBA" cx="271.479" cy="200.096" rx="1.58" ry="1.696"/>
					<ellipse fill="#8C9B56" cx="280.486" cy="200.079" rx="1.579" ry="1.696"/>
					<ellipse fill="#457BBA" cx="289.501" cy="200.063" rx="1.58" ry="1.696"/>
					<path fill="#457BBA" d="M266.938,187.277c0.874-0.001,1.58-0.763,1.578-1.7c-0.002-0.937-0.711-1.694-1.584-1.693
						L266.938,187.277z"/>
					<path fill="#457BBA" d="M266.955,196.953c0.872-0.001,1.575-0.762,1.573-1.699c-0.001-0.937-0.708-1.695-1.58-1.693
						L266.955,196.953z"/>
				</g>
				<g>
					<ellipse fill="#231F20" cx="298.478" cy="180.684" rx="1.58" ry="1.696"/>
					<path fill="#457BBA" d="M321.01,187.177c-0.874,0.001-1.581-0.757-1.583-1.694c-0.002-0.937,0.703-1.697,1.577-1.699
						L321.01,187.177z"/>
					<path fill="#457BBA" d="M321.029,196.852c-0.873,0.001-1.578-0.756-1.58-1.693c-0.001-0.937,0.701-1.698,1.573-1.699
						L321.029,196.852z"/>
					<ellipse fill="#457BBA" cx="298.478" cy="180.684" rx="1.58" ry="1.696"/>
					<ellipse fill="#8C9B56" cx="307.485" cy="180.667" rx="1.579" ry="1.696"/>
					<ellipse fill="#457BBA" cx="316.5" cy="180.651" rx="1.58" ry="1.696"/>
					<ellipse fill="#8C9B56" cx="303.011" cy="195.19" rx="1.58" ry="1.696"/>
					<ellipse fill="#8C9B56" cx="312.017" cy="195.173" rx="1.58" ry="1.696"/>
					<ellipse fill="#8C9B56" cx="302.993" cy="185.514" rx="1.58" ry="1.696"/>
					<ellipse fill="#8C9B56" cx="311.999" cy="185.497" rx="1.58" ry="1.696"/>
					<ellipse fill="#8C9B56" cx="298.496" cy="190.36" rx="1.58" ry="1.696"/>
					<ellipse fill="#457BBA" cx="307.503" cy="190.343" rx="1.579" ry="1.696"/>
					<ellipse fill="#8C9B56" cx="316.518" cy="190.326" rx="1.58" ry="1.696"/>
					<ellipse fill="#457BBA" cx="298.514" cy="200.046" rx="1.58" ry="1.696"/>
					<ellipse fill="#8C9B56" cx="307.521" cy="200.029" rx="1.579" ry="1.696"/>
					<ellipse fill="#457BBA" cx="316.536" cy="200.012" rx="1.58" ry="1.696"/>
					<path fill="#457BBA" d="M293.973,187.227c0.874-0.001,1.58-0.763,1.578-1.7c-0.001-0.937-0.71-1.694-1.584-1.693
						L293.973,187.227z"/>
					<path fill="#457BBA" d="M293.99,196.902c0.873-0.001,1.575-0.762,1.574-1.699c-0.002-0.937-0.708-1.695-1.58-1.693
						L293.99,196.902z"/>
				</g>
			</g>
		</g>
	</g>
	<path fill="#7B0063" d="M681.732,484.5"/>
	<g>
		
			<line fill="none" stroke="#FFFFFF" stroke-width="40" stroke-miterlimit="1" x1="668.894" y1="296.727" x2="668.894" y2="296.727"/>
		
			<rect x="671.452" y="262.035" transform="matrix(0.8528 0.5222 -0.5222 0.8528 270.3338 -308.104)" fill="#FFFFFF" stroke="#136262" stroke-width="7" stroke-miterlimit="10" width="20.62" height="127.001"/>
		
			<rect x="716.019" y="257.072" transform="matrix(0.8617 0.5074 -0.5074 0.8617 234.1666 -329.0361)" fill="none" stroke="#136262" stroke-width="7" stroke-miterlimit="10" width="9.396" height="16.001"/>
		
			<line fill="none" stroke="#136262" stroke-width="7" stroke-miterlimit="10" x1="639.32" y1="374.214" x2="633.696" y2="406.277"/>
		
			<line fill="none" stroke="#136262" stroke-width="7" stroke-miterlimit="10" x1="632.431" y1="405.536" x2="657.392" y2="386.147"/>
		
			<line fill="none" stroke="#136262" stroke-width="7" stroke-miterlimit="10" x1="700.564" y1="275.256" x2="689.362" y2="268.659"/>
		
			<line fill="none" stroke="#136262" stroke-width="7" stroke-miterlimit="10" x1="688.678" y1="268.835" x2="670.41" y2="299.856"/>
		
			<line fill="none" stroke="#136262" stroke-width="7" stroke-miterlimit="10" x1="688.678" y1="268.835" x2="690.709" y2="265.39"/>
	</g>
	<g>
		
			<line fill="#FFFFFF" stroke="#FFFFFF" stroke-width="40" stroke-miterlimit="1" x1="222.895" y1="213.346" x2="222.895" y2="213.346"/>
		
			<rect x="225.453" y="121.035" transform="matrix(0.8528 -0.5222 0.5222 0.8528 -61.6659 150.2744)" fill="#FFFFFF" stroke="#7B0063" stroke-width="7" stroke-miterlimit="10" width="20.62" height="127.001"/>
		
			<rect x="270.02" y="236.999" transform="matrix(0.8617 -0.5074 0.5074 0.8617 -86.3223 173.2735)" fill="#FFFFFF" stroke="#7B0063" stroke-width="7" stroke-miterlimit="10" width="9.396" height="16.001"/>
		
			<line fill="#FFFFFF" stroke="#7B0063" stroke-width="7" stroke-miterlimit="10" x1="193.321" y1="135.858" x2="187.697" y2="103.795"/>
		
			<line fill="#FFFFFF" stroke="#7B0063" stroke-width="7" stroke-miterlimit="10" x1="186.521" y1="104.422" x2="211.303" y2="124.039"/>
		
			<line fill="#FFFFFF" stroke="#7B0063" stroke-width="7" stroke-miterlimit="10" x1="254.565" y1="234.816" x2="243.363" y2="241.413"/>
		
			<line fill="#FFFFFF" stroke="#7B0063" stroke-width="7" stroke-miterlimit="10" x1="242.679" y1="241.237" x2="224.411" y2="210.216"/>
		
			<line fill="#FFFFFF" stroke="#7B0063" stroke-width="7" stroke-miterlimit="10" x1="242.679" y1="241.237" x2="244.71" y2="244.683"/>
	</g>
</g>
</svg>
