<?xml version="1.0" encoding="utf-8"?>
<!-- Generator: Adobe Illustrator 16.0.0, SVG Export Plug-In . SVG Version: 6.00 Build 0)  -->
<!DOCTYPE svg PUBLIC "-//W3C//DTD SVG 1.1//EN" "http://www.w3.org/Graphics/SVG/1.1/DTD/svg11.dtd">
<svg version="1.1" xmlns="http://www.w3.org/2000/svg" xmlns:xlink="http://www.w3.org/1999/xlink" x="0px" y="0px"
	 width="595.28px" height="841.89px" viewBox="0 0 595.28 841.89" enable-background="new 0 0 595.28 841.89" xml:space="preserve">
<g id="Слой_6">
	<path fill="#B5DDC0" stroke="#FFFFFF" stroke-width="9" stroke-miterlimit="10" d="M126.846,599.371
		c0,0,19.932-47.564,14.518-67.998c-5.414-20.434,8.776-6.244,11.047-15.895c2.27-9.648-3.974-38.574,2.27-41.979
		c6.243-3.408,133.695,92.496,133.695,92.496c-8.754-6.924,18.581,15.723,30.908,7.947c11.248-7.102,12.062-17.029,12.062-17.029
		s20.857,9.082,33.347-1.705c8.515-10.781,5.108-22.135,5.108-22.135s26.262,9.59,31.218-1.135
		c3.436-7.439,2.837-18.162,2.837-18.162s23.382,1.701,28.379-3.975c7.976-9.057,6.812-27.244,6.812-27.244l24.408-9.059
		c0,0-5.678,46.52,5.108,53.332c10.783,6.809,52.765,6.51,52.765,6.51s21.52,159.684-9.3,169.568
		c-23.44,6.482-341.01,13.705-401.557-1.43c-60.546-15.137-33.537-102.49-33.537-102.49l398.075,3.029
		c-12.883,108.422,36.929,98.99,27.276,102.322"/>
</g>
<g id="Слой_7">
	<g id="Слой_2">
		<path fill="none" stroke="#000000" stroke-miterlimit="10" d="M246.122,328.134c0.331,0,0.662,0,0.993,0"/>
		<path fill="#B5DDC0" stroke="#FFFFFF" stroke-miterlimit="10" d="M147.525,90.38c43.81-13.135,384.985,6.892,384.985,6.892
			c-52.624,6.104-37.382,167.171-39.368,145.457c0,0-18.957-1.676-22.375,2.287c-3.42,3.962,5.563,34.64-0.128,40.525
			c-5.696,5.884-30.082-0.093-30.082-0.093s-101.442-31.763-115.699-30.105c-14.256,1.66-47.705,29.096-53.381,29.078
			c-3.875-0.011-14.229-8.121-19.909-5.467c-2.874,1.342-67.048,21.926-77.256,19.625c-10.212-2.302-13.015-14.003-13.015-14.003
			s0.723-49.039-5.564-52.428c-6.284-3.39-38.539-0.122-38.539-0.122S90.71,107.415,147.525,90.38z"/>
		<path fill="none" stroke="#000000" stroke-miterlimit="10" d="M126.846,599.281"/>
		<path fill="#B5DDC0" stroke="#FFFFFF" stroke-width="3" stroke-miterlimit="10" d="M502.232,235.823l29.413,1.162
			c49.184-76.409,22.959-128.197,26.078-121.005c-5.298-12.721-10.424-14.74-21.565-13.653c-6.695,0.646-13.871,4.98-19.677,14.082
			c-5.811,9.095-9.474,25.752-11.497,32.963C494.44,187.035,502.232,235.823,502.232,235.823z"/>
	</g>
	<path fill="none" stroke="#000000" stroke-miterlimit="10" d="M74.699,281.139"/>
	<path d="M573.438,520.023c-4.137,6.352-86.766,2.348-92.278,0c-5.512-2.352,1.354-260.717,3.029-266.718
		c1.676-6.002,88.662-3.283,92.278,0C580.086,256.586,577.574,513.672,573.438,520.023z"/>
	<path fill="#156162" d="M472.31,301.424c-20.017,14.928-86.714-14.366-81.954-11.711c4.755,2.654-49.455-20.227-68.682-18.363
		c-19.227,1.865-33.726,17.676-55.558,31.38c-39.479,24.783-87.481,43.583-79.459,54.49c17.255,23.46,47.004,27.102,52.49,24.916
		c5.485-2.185,73.512-53.325,86.189-55.39C338.015,324.677,438.08,473.41,438.08,473.41l31.256-14.145L472.31,301.424z"/>
	<path d="M148.385,308.4c0,0,6.744,8.518,17.342,11.546c10.598,3.03,83.251-21.189,83.251-21.189s-81.526,36.789-74.71,59.27
		c6.816,22.479,56.653,36.359,68.652,33.816c12-2.543,67.096-50.845,82.232-50.347c15.134,0.496,102.428,137.379,102.428,137.379
		s3.974,16.99-5.866,23.043c-9.84,6.055-27.432-3.365-27.432-3.365s5.063,20.188-4.771,23.973
		c-9.837,3.783-31.178-4.297-31.178-4.297s9.764,21-2.724,27.244c-14.579,7.291-32.922-6.811-32.922-6.811
		s2.648,15.742-7.945,21.797c-10.593,6.055-34.622-12.715-34.622-12.715s-90.736-70.975-98.439-77.488
		c-7.703-6.518-30.703-12.988-30.703-12.988L148.385,308.4z"/>
	<path fill="#156162" stroke="#FFFFFF" stroke-width="4" stroke-miterlimit="10" d="M48.005,244.479
		c3.682-3.2,90.707-4.16,92.257,1.859c1.559,6.021,3.226,263.86-2.336,266.097c-5.557,2.232-88.25,4.559-92.256-1.861
		C41.661,504.152,44.32,247.681,48.005,244.479z"/>
</g>
<g id="Слой_3" display="none">
	
		<rect x="190.709" y="245.143" display="inline" fill="none" stroke="#000000" stroke-miterlimit="10" width="82.524" height="44.421"/>
</g>
<g id="Слой_4">
</g>
<g id="Слой_5">
</g>
</svg>
